# xmcd CD database file
#
# Track frame offsets:
#	150
#	12495
#	20580
#	37008
#	50940
#	64880
#	83850
#	95793
#	109383
#	120298
#	134015
#	146498
#	158870
#	172365
#	194028
#	207893
#	220968
#	237905
#	252463
#	266063
#	281070
#	295628
#
# Disc length: 4169 seconds
#
# Revision: 0
# Processed by: cddbd v1.5.2PL0 Copyright (c) Steve Scherf et al.
# Submitted via: CDex 1.50
#
DISCID=6b104716
DTITLE=Various Artist - Compilation
DYEAR=1998
DGENRE=Jazz
TTITLE0=Count Basie - Swingin' the Blues
TTITLE1=Billie Holliday - Swing Brother Swing
TTITLE2=Lionel Hampton - Look! Four Hands
TTITLE3=Django Reinhardt - Keep Cool
TTITLE4=Jimmie Lunceford - Ain't what you do
TTITLE5=Sidney Bechet - Summertime
TTITLE6=Art Tatum - Tea for Two
TTITLE7=Gene Kupra - Drummin' Man
TTITLE8=Charlie Parker - Donna Lee
TTITLE9=Coleman Hawkins - Chicago
TTITLE10=Ella Fitzgerald - Sing Song Swing
TTITLE11=Earl Hines and his orchestra - Rosetta
TTITLE12=Duke Ellington - Solitude
TTITLE13=Louis Armstrong - Hello Dolly
TTITLE14=Benny Goodman sextet - Royal Garden
TTITLE15=Cab Calloway - The Jumpin' Jive
TTITLE16=Scott Joplin - The Entertainer
TTITLE17=Slim Gaillard - Buck Dance Rythm
TTITLE18=Harry James - King Porter Stomp
TTITLE19=Charlie Barnett - Cherokee
TTITLE20=Stephane Grappelli - Djangology
TTITLE21=Big Band Orchestra - In the Mood
EXTD=YEAR: 1998
EXTT0=
EXTT1=
EXTT2=
EXTT3=
EXTT4=
EXTT5=
EXTT6=
EXTT7=
EXTT8=
EXTT9=
EXTT10=
EXTT11=
EXTT12=
EXTT13=
EXTT14=
EXTT15=
EXTT16=
EXTT17=
EXTT18=
EXTT19=
EXTT20=
EXTT21=
PLAYORDER=
